<svg xmlns="http://www.w3.org/2000/svg" xmlns:xlink="http://www.w3.org/1999/xlink" width="80" zoomAndPan="magnify" viewBox="0 0 60 60" height="80" preserveAspectRatio="xMidYMid meet" version="1.0"><path fill="#46cc6b" d="M 60 30.011719 C 60 46.566406 46.574219 59.992188 30.019531 59.992188 C 25.589844 59.996094 21.371094 59.0625 17.355469 57.191406 C 16.160156 56.632812 14.90625 56.273438 13.59375 56.113281 C 12.28125 55.953125 10.980469 56 9.683594 56.253906 L 5 57.175781 C 3.019531 57.566406 1.472656 55.476562 2.429688 53.695312 C 4.28125 50.246094 4.425781 46.121094 2.785156 42.566406 C 0.957031 38.605469 0.0429688 34.445312 0.0390625 30.082031 C 0 13.507812 13.402344 0.0546875 29.972656 0.03125 C 46.550781 0.00390625 60 13.4375 60 30.011719 Z M 60 30.011719 " fill-opacity="1" fill-rule="nonzero"/><path fill="#ffffff" d="M 55.679688 30.011719 C 55.679688 30.851562 55.640625 31.6875 55.558594 32.523438 C 55.476562 33.363281 55.351562 34.191406 55.1875 35.015625 C 55.023438 35.839844 54.820312 36.65625 54.578125 37.460938 C 54.332031 38.265625 54.050781 39.054688 53.726562 39.832031 C 53.40625 40.605469 53.046875 41.367188 52.652344 42.109375 C 52.253906 42.847656 51.824219 43.570312 51.355469 44.269531 C 50.890625 44.964844 50.390625 45.640625 49.855469 46.289062 C 49.324219 46.941406 48.757812 47.5625 48.164062 48.15625 C 47.570312 48.75 46.949219 49.316406 46.300781 49.847656 C 45.648438 50.382812 44.976562 50.882812 44.277344 51.347656 C 43.578125 51.816406 42.855469 52.246094 42.117188 52.644531 C 41.375 53.039062 40.617188 53.398438 39.839844 53.71875 C 39.0625 54.042969 38.273438 54.324219 37.46875 54.566406 C 36.664062 54.8125 35.847656 55.015625 35.023438 55.179688 C 34.199219 55.34375 33.371094 55.46875 32.535156 55.550781 C 31.695312 55.632812 30.859375 55.671875 30.019531 55.671875 C 29.175781 55.671875 28.339844 55.632812 27.503906 55.550781 C 26.667969 55.46875 25.835938 55.34375 25.011719 55.179688 C 24.1875 55.015625 23.371094 54.8125 22.566406 54.566406 C 21.765625 54.324219 20.972656 54.042969 20.195312 53.71875 C 19.421875 53.398438 18.660156 53.039062 17.921875 52.644531 C 17.179688 52.246094 16.460938 51.816406 15.761719 51.347656 C 15.0625 50.882812 14.386719 50.382812 13.738281 49.847656 C 13.085938 49.316406 12.464844 48.75 11.871094 48.15625 C 11.277344 47.5625 10.714844 46.941406 10.179688 46.289062 C 9.648438 45.640625 9.148438 44.964844 8.679688 44.269531 C 8.210938 43.570312 7.78125 42.847656 7.386719 42.109375 C 6.988281 41.367188 6.628906 40.605469 6.308594 39.832031 C 5.988281 39.054688 5.703125 38.265625 5.460938 37.460938 C 5.214844 36.65625 5.011719 35.839844 4.847656 35.015625 C 4.683594 34.191406 4.558594 33.363281 4.476562 32.523438 C 4.394531 31.6875 4.355469 30.851562 4.355469 30.011719 C 4.355469 29.167969 4.394531 28.332031 4.476562 27.496094 C 4.558594 26.65625 4.683594 25.828125 4.847656 25.003906 C 5.011719 24.179688 5.214844 23.363281 5.460938 22.558594 C 5.703125 21.753906 5.988281 20.964844 6.308594 20.1875 C 6.628906 19.414062 6.988281 18.652344 7.386719 17.914062 C 7.78125 17.171875 8.210938 16.449219 8.679688 15.753906 C 9.148438 15.054688 9.648438 14.378906 10.179688 13.730469 C 10.714844 13.078125 11.277344 12.457031 11.871094 11.863281 C 12.464844 11.269531 13.085938 10.703125 13.738281 10.171875 C 14.386719 9.636719 15.0625 9.136719 15.761719 8.671875 C 16.460938 8.203125 17.179688 7.773438 17.921875 7.375 C 18.660156 6.980469 19.421875 6.621094 20.195312 6.300781 C 20.972656 5.976562 21.765625 5.695312 22.566406 5.453125 C 23.371094 5.207031 24.1875 5.003906 25.011719 4.839844 C 25.835938 4.675781 26.667969 4.550781 27.503906 4.46875 C 28.339844 4.386719 29.175781 4.347656 30.019531 4.347656 C 30.859375 4.347656 31.695312 4.386719 32.535156 4.46875 C 33.371094 4.550781 34.199219 4.675781 35.023438 4.839844 C 35.847656 5.003906 36.664062 5.207031 37.46875 5.453125 C 38.273438 5.695312 39.0625 5.976562 39.839844 6.300781 C 40.617188 6.621094 41.375 6.980469 42.117188 7.375 C 42.855469 7.773438 43.578125 8.203125 44.277344 8.671875 C 44.976562 9.136719 45.648438 9.636719 46.300781 10.171875 C 46.949219 10.703125 47.570312 11.269531 48.164062 11.863281 C 48.757812 12.457031 49.324219 13.078125 49.855469 13.730469 C 50.390625 14.378906 50.890625 15.054688 51.355469 15.753906 C 51.824219 16.449219 52.253906 17.171875 52.652344 17.914062 C 53.046875 18.652344 53.40625 19.414062 53.726562 20.1875 C 54.050781 20.964844 54.332031 21.753906 54.578125 22.558594 C 54.820312 23.363281 55.023438 24.179688 55.1875 25.003906 C 55.351562 25.828125 55.476562 26.65625 55.558594 27.496094 C 55.640625 28.332031 55.679688 29.167969 55.679688 30.011719 Z M 55.679688 30.011719 " fill-opacity="1" fill-rule="nonzero"/><path fill="#46cc6b" d="M 51.097656 30.011719 C 51.097656 30.699219 51.066406 31.390625 50.996094 32.074219 C 50.929688 32.761719 50.828125 33.445312 50.695312 34.121094 C 50.558594 34.800781 50.390625 35.46875 50.191406 36.128906 C 49.992188 36.789062 49.757812 37.4375 49.496094 38.078125 C 49.230469 38.714844 48.933594 39.339844 48.609375 39.945312 C 48.285156 40.554688 47.929688 41.148438 47.546875 41.722656 C 47.164062 42.296875 46.75 42.851562 46.3125 43.382812 C 45.875 43.917969 45.414062 44.429688 44.925781 44.917969 C 44.4375 45.40625 43.925781 45.867188 43.390625 46.304688 C 42.859375 46.742188 42.304688 47.152344 41.730469 47.539062 C 41.15625 47.921875 40.5625 48.277344 39.957031 48.601562 C 39.347656 48.925781 38.722656 49.222656 38.085938 49.484375 C 37.449219 49.75 36.796875 49.984375 36.136719 50.183594 C 35.476562 50.382812 34.808594 50.550781 34.128906 50.6875 C 33.453125 50.820312 32.769531 50.921875 32.085938 50.988281 C 31.398438 51.058594 30.707031 51.089844 30.019531 51.089844 C 29.328125 51.089844 28.640625 51.058594 27.953125 50.988281 C 27.265625 50.921875 26.582031 50.820312 25.90625 50.6875 C 25.226562 50.550781 24.558594 50.382812 23.898438 50.183594 C 23.238281 49.984375 22.589844 49.75 21.949219 49.484375 C 21.3125 49.222656 20.691406 48.925781 20.082031 48.601562 C 19.472656 48.277344 18.878906 47.921875 18.304688 47.539062 C 17.730469 47.152344 17.179688 46.742188 16.644531 46.304688 C 16.109375 45.867188 15.601562 45.40625 15.113281 44.917969 C 14.625 44.429688 14.160156 43.917969 13.722656 43.382812 C 13.285156 42.851562 12.875 42.296875 12.488281 41.722656 C 12.105469 41.148438 11.753906 40.554688 11.425781 39.945312 C 11.101562 39.339844 10.804688 38.714844 10.542969 38.078125 C 10.277344 37.4375 10.046875 36.789062 9.84375 36.128906 C 9.644531 35.46875 9.476562 34.800781 9.34375 34.121094 C 9.207031 33.445312 9.105469 32.761719 9.039062 32.074219 C 8.972656 31.390625 8.9375 30.699219 8.9375 30.011719 C 8.9375 29.320312 8.972656 28.628906 9.039062 27.945312 C 9.105469 27.257812 9.207031 26.574219 9.34375 25.898438 C 9.476562 25.21875 9.644531 24.550781 9.84375 23.890625 C 10.046875 23.230469 10.277344 22.582031 10.542969 21.941406 C 10.804688 21.304688 11.101562 20.679688 11.425781 20.074219 C 11.753906 19.464844 12.105469 18.871094 12.488281 18.296875 C 12.875 17.722656 13.285156 17.171875 13.722656 16.636719 C 14.160156 16.101562 14.625 15.589844 15.113281 15.105469 C 15.601562 14.617188 16.109375 14.152344 16.644531 13.714844 C 17.179688 13.277344 17.730469 12.867188 18.304688 12.480469 C 18.878906 12.097656 19.472656 11.742188 20.082031 11.417969 C 20.691406 11.09375 21.3125 10.796875 21.949219 10.535156 C 22.589844 10.269531 23.238281 10.039062 23.898438 9.835938 C 24.558594 9.636719 25.226562 9.46875 25.90625 9.335938 C 26.582031 9.199219 27.265625 9.097656 27.953125 9.03125 C 28.640625 8.964844 29.328125 8.929688 30.019531 8.929688 C 30.707031 8.929688 31.398438 8.964844 32.085938 9.03125 C 32.769531 9.097656 33.453125 9.199219 34.128906 9.335938 C 34.808594 9.46875 35.476562 9.636719 36.136719 9.835938 C 36.796875 10.039062 37.449219 10.269531 38.085938 10.535156 C 38.722656 10.796875 39.347656 11.09375 39.957031 11.417969 C 40.5625 11.742188 41.15625 12.097656 41.730469 12.480469 C 42.304688 12.867188 42.859375 13.277344 43.390625 13.714844 C 43.925781 14.152344 44.4375 14.617188 44.925781 15.105469 C 45.414062 15.589844 45.875 16.101562 46.3125 16.636719 C 46.75 17.171875 47.164062 17.722656 47.546875 18.296875 C 47.929688 18.871094 48.285156 19.464844 48.609375 20.074219 C 48.933594 20.679688 49.230469 21.304688 49.496094 21.941406 C 49.757812 22.582031 49.992188 23.230469 50.191406 23.890625 C 50.390625 24.550781 50.558594 25.21875 50.695312 25.898438 C 50.828125 26.574219 50.929688 27.257812 50.996094 27.945312 C 51.066406 28.628906 51.097656 29.320312 51.097656 30.011719 Z M 51.097656 30.011719 " fill-opacity="1" fill-rule="nonzero"/><path fill="#ffffff" d="M 26.929688 25.277344 L 25.863281 22.097656 C 25.742188 21.730469 25.546875 21.402344 25.285156 21.117188 C 25.023438 20.832031 24.714844 20.613281 24.359375 20.460938 C 24 20.308594 23.628906 20.234375 23.242188 20.238281 C 22.855469 20.246094 22.484375 20.328125 22.132812 20.492188 L 20.414062 21.292969 C 20.136719 21.425781 19.886719 21.597656 19.664062 21.8125 C 19.445312 22.03125 19.265625 22.277344 19.128906 22.554688 C 18.992188 22.828125 18.902344 23.121094 18.863281 23.425781 C 18.828125 23.734375 18.839844 24.039062 18.90625 24.339844 C 19.980469 29.3125 23.933594 41.222656 37.28125 42.707031 C 37.824219 42.769531 38.335938 42.675781 38.820312 42.425781 C 39.308594 42.179688 39.683594 41.816406 39.953125 41.34375 L 40.839844 39.777344 C 41.015625 39.464844 41.128906 39.128906 41.171875 38.769531 C 41.214844 38.410156 41.1875 38.058594 41.09375 37.710938 C 40.996094 37.363281 40.835938 37.046875 40.613281 36.761719 C 40.394531 36.476562 40.125 36.246094 39.8125 36.070312 L 39.792969 36.058594 L 37.414062 34.738281 C 37.15625 34.59375 36.882812 34.496094 36.59375 34.441406 C 36.304688 34.386719 36.011719 34.378906 35.71875 34.417969 C 35.429688 34.460938 35.152344 34.546875 34.886719 34.675781 C 34.621094 34.804688 34.386719 34.976562 34.175781 35.183594 C 33.96875 35.390625 33.734375 35.558594 33.472656 35.6875 C 33.210938 35.816406 32.933594 35.902344 32.644531 35.945312 C 32.351562 35.984375 32.0625 35.980469 31.777344 35.929688 C 31.488281 35.875 31.214844 35.777344 30.957031 35.636719 C 29.511719 34.84375 27.527344 33.488281 26.140625 31.488281 C 25.820312 31.027344 25.65625 30.515625 25.648438 29.957031 C 25.640625 29.398438 25.792969 28.882812 26.101562 28.417969 L 26.613281 27.648438 C 26.847656 27.300781 26.992188 26.917969 27.046875 26.5 C 27.101562 26.082031 27.0625 25.675781 26.929688 25.277344 Z M 26.929688 25.277344 " fill-opacity="1" fill-rule="nonzero"/></svg>